<?xml version="1.0" standalone="no"?>
<!DOCTYPE svg PUBLIC "-//W3C//DTD SVG 20010904//EN"
 "http://www.w3.org/TR/2001/REC-SVG-20010904/DTD/svg10.dtd">
<svg version="1.0" xmlns="http://www.w3.org/2000/svg"
 width="300.000000pt" height="300.000000pt" viewBox="0 0 300.000000 300.000000"
 preserveAspectRatio="xMidYMid meet">
<metadata>
Created by potrace 1.14, written by Peter Selinger 2001-2017
</metadata>
<g transform="translate(0.000000,300.000000) scale(0.100000,-0.100000)"
fill="#000000" stroke="none">
<path d="M1219 1925 c-70 -15 -79 -21 -79 -49 0 -29 29 -56 62 -56 72 0 84
-51 90 -371 l3 -195 -29 -38 c-57 -76 -142 -114 -302 -137 -105 -14 -133 -6
-171 50 -23 34 -23 36 -24 380 0 375 -5 413 -48 419 -13 2 -33 -1 -45 -7 -12
-6 -50 -17 -86 -26 -36 -9 -87 -23 -113 -33 -44 -15 -48 -19 -45 -45 3 -26 9
-31 58 -46 89 -28 117 -46 124 -82 3 -17 6 -132 6 -254 0 -198 2 -228 19 -268
40 -93 133 -155 267 -178 66 -12 76 -11 155 13 46 14 97 29 112 32 37 9 95 -8
137 -39 46 -34 85 -39 155 -17 47 14 61 23 63 40 4 29 -15 62 -36 62 -10 0
-27 6 -38 14 -18 14 -19 33 -25 388 -5 388 -10 427 -49 448 -24 13 -90 11
-161 -5z"/>
<path d="M2090 910 c-63 -4 -171 -8 -240 -9 -105 -1 -130 -4 -157 -21 -38 -23
-41 -38 -14 -71 l19 -24 314 -5 c172 -3 341 -2 375 2 80 9 123 31 123 62 0 70
-98 85 -420 66z"/>
</g>
</svg>
